<?xml version="1.0" standalone="no"?>
<!DOCTYPE svg PUBLIC "-//W3C//DTD SVG 20010904//EN"
 "http://www.w3.org/TR/2001/REC-SVG-20010904/DTD/svg10.dtd">
<svg version="1.0" xmlns="http://www.w3.org/2000/svg"
 width="300.000000pt" height="300.000000pt" viewBox="0 0 300.000000 300.000000"
 preserveAspectRatio="xMidYMid meet">
<metadata>
Created by potrace 1.10, written by Peter Selinger 2001-2011
</metadata>
<g transform="translate(0.000000,300.000000) scale(0.100000,-0.100000)"
fill="#fff" stroke="none">
<path d="M1155 2473 c-88 -26 -125 -81 -134 -198 l-6 -69 -65 -1 c-77 0 -119
-24 -150 -85 -33 -65 -25 -120 26 -174 32 -34 43 -81 44 -201 2 -168 8 -186
78 -256 57 -56 65 -61 95 -55 17 4 43 18 56 31 23 25 25 25 190 25 91 0 260 1
376 1 l209 1 23 -26 c12 -15 36 -29 53 -32 26 -6 36 -1 71 35 23 22 45 41 49
41 5 0 19 14 31 32 20 28 23 48 30 195 l8 163 35 43 c75 91 56 188 -48 247
-30 16 -52 21 -90 18 l-51 -3 -7 70 c-12 127 -54 182 -155 204 -83 17 -606 13
-668 -6z m693 -19 c82 -34 112 -87 112 -197 0 -63 -3 -77 -21 -93 -31 -27 -49
-76 -49 -131 l0 -47 -30 29 c-20 19 -28 35 -24 45 18 42 33 144 33 215 l-1 80
-13 -82 c-7 -45 -20 -110 -29 -145 l-18 -63 -308 0 -309 0 -22 80 c-12 44 -24
111 -27 149 -3 50 -7 64 -14 52 -12 -21 7 -210 27 -265 13 -38 13 -40 -16 -67
l-29 -28 0 53 c0 56 -15 94 -49 125 -18 16 -21 31 -21 98 0 49 5 89 14 106 18
35 64 78 96 91 14 5 161 10 344 10 263 0 324 -2 354 -15z m-841 -284 c64 -39
67 -53 73 -282 5 -192 6 -208 25 -222 17 -13 77 -15 397 -16 l377 0 20 26 c20
25 21 40 21 218 0 213 6 235 72 276 89 54 208 -17 208 -123 0 -41 -5 -52 -39
-86 l-39 -39 -7 -148 c-9 -171 -10 -182 -18 -209 -8 -24 -62 -59 -77 -50 -6 3
-10 -5 -10 -19 0 -16 -9 -32 -25 -42 -23 -15 -27 -15 -50 0 -14 9 -25 25 -25
36 0 19 -11 20 -410 22 -385 3 -410 2 -410 -14 0 -28 -36 -58 -62 -53 -24 5
-48 30 -48 51 0 6 -13 17 -29 24 -31 12 -63 65 -59 97 2 10 -1 83 -6 161 l-8
144 -39 39 c-34 34 -39 45 -39 86 0 52 26 100 69 127 36 21 99 20 138 -4z
m834 -178 c34 -37 39 -94 12 -124 -15 -17 -39 -18 -351 -18 -298 0 -337 2
-354 17 -36 32 -13 118 40 148 23 12 75 14 325 12 l299 -2 29 -33z m-711 -147
c0 -7 -7 -15 -15 -19 -11 -4 -15 2 -15 26 0 26 2 29 15 18 8 -7 15 -18 15 -25z
m766 -10 c-5 -14 -9 -15 -21 -5 -12 10 -13 16 -4 27 15 18 34 1 25 -22z m-20
-27 c11 -18 4 -112 -9 -120 -7 -4 -175 -8 -374 -8 -348 0 -363 1 -373 19 -5
11 -10 34 -10 51 0 17 5 40 10 51 10 18 25 19 380 19 273 0 371 -3 376 -12z"/>
<path d="M1310 2265 c-18 -21 -5 -45 25 -45 20 0 25 5 25 24 0 13 -7 27 -16
30 -21 8 -20 8 -34 -9z"/>
<path d="M1483 2273 c-19 -7 -16 -50 4 -57 24 -10 51 20 37 41 -12 19 -23 24
-41 16z"/>
<path d="M1642 2268 c-18 -18 -15 -36 7 -48 15 -7 23 -6 35 6 12 12 13 20 6
35 -12 22 -30 25 -48 7z"/>
<path d="M917 2074 c-13 -13 -7 -52 8 -58 27 -10 46 5 43 33 -3 26 -35 41 -51
25z"/>
<path d="M2031 2066 c-6 -7 -9 -20 -5 -29 15 -41 73 -20 59 22 -7 24 -37 28
-54 7z"/>
<path d="M656 2454 c-14 -14 -16 -70 -16 -467 0 -275 4 -458 10 -467 6 -10 10
149 10 458 l0 472 128 0 c86 0 122 3 112 10 -8 5 -63 10 -122 10 -84 0 -110
-3 -122 -16z"/>
<path d="M2095 2460 c-13 -5 30 -9 115 -9 l135 -1 -2 -437 c-1 -241 2 -454 7
-473 9 -39 14 278 11 665 -2 207 -5 242 -19 253 -18 14 -215 16 -247 2z"/>
<path d="M897 2413 c-14 -14 -32 -17 -97 -14 l-80 3 1 -449 c0 -248 4 -439 9
-428 4 11 8 204 9 429 0 225 3 411 5 413 3 3 34 6 70 7 57 1 69 5 93 29 15 15
23 27 17 27 -5 0 -17 -8 -27 -17z"/>
<path d="M2092 2404 c22 -22 37 -27 94 -31 39 -2 71 -9 76 -16 4 -6 6 -165 4
-352 -2 -187 0 -376 4 -420 5 -57 13 580 10 803 0 4 -36 7 -80 8 -60 0 -84 5
-98 17 -30 27 -39 19 -10 -9z"/>
<path d="M302 1339 c18 -7 33 -7 45 0 14 8 9 10 -27 10 -42 -1 -43 -1 -18 -10z"/>
<path d="M510 1340 c36 -11 102 -11 120 0 10 7 -10 9 -65 9 -55 -1 -72 -3 -55
-9z"/>
<path d="M783 1339 c24 -6 45 -5 55 1 12 7 2 9 -38 9 -55 -1 -55 -1 -17 -10z"/>
<path d="M953 1339 c17 -10 143 -6 154 5 4 3 -34 6 -83 6 -66 -1 -84 -3 -71
-11z"/>
<path d="M1291 1345 c9 -8 98 -11 93 -3 -3 4 -26 8 -51 8 -26 0 -44 -2 -42 -5z"/>
<path d="M1443 1344 c3 -4 40 -6 81 -6 l74 0 10 -36 c10 -37 10 -37 11 -6 2
46 -14 54 -103 54 -43 0 -77 -3 -73 -6z"/>
<path d="M1735 1340 c68 -7 82 -12 102 -35 30 -35 31 -97 2 -126 l-21 -21 23
-50 c13 -27 27 -52 31 -54 9 -6 2 19 -14 53 -8 16 -7 37 6 81 9 33 14 68 10
78 -23 71 -47 85 -147 83 l-72 -2 80 -7z"/>
<path d="M2088 1339 c15 -5 36 -6 55 0 29 8 27 9 -23 9 -44 1 -50 -1 -32 -9z"/>
<path d="M2308 1339 c13 -5 34 -6 47 -3 38 9 93 -14 110 -46 21 -41 19 -75 -8
-106 l-24 -27 23 -48 c31 -63 49 -73 26 -13 -19 47 -19 48 3 105 13 32 26 75
29 96 l7 38 100 0 c98 0 100 0 105 -25 10 -43 12 -46 13 -15 1 49 -13 55 -121
55 -91 0 -98 -2 -109 -22 -6 -13 -13 -25 -15 -27 -2 -2 -17 8 -34 23 -28 23
-40 26 -103 25 -55 0 -67 -2 -49 -10z"/>
<path d="M1123 1305 c4 -22 11 -41 17 -43 6 -2 10 -46 10 -110 0 -73 3 -103
10 -96 7 7 10 59 8 134 -3 117 -4 123 -27 139 l-24 16 6 -40z"/>
<path d="M360 1311 c-5 -11 -10 -65 -10 -120 l0 -101 28 0 c16 0 37 7 48 15
19 14 19 14 -2 9 -13 -3 -28 1 -38 12 -15 14 -17 32 -14 111 1 51 2 93 1 93
-1 0 -7 -9 -13 -19z"/>
<path d="M856 1317 c-9 -18 47 -244 65 -262 15 -15 11 14 -20 125 -16 58 -31
116 -33 130 -4 21 -6 22 -12 7z"/>
<path d="M1252 1318 c-5 -7 -12 -32 -14 -55 -3 -43 -3 -43 29 -43 32 0 33 1
33 43 0 56 -24 83 -48 55z"/>
<path d="M2050 1298 c0 -18 -7 -58 -16 -88 -24 -86 -42 -160 -38 -160 9 0 30
55 50 135 26 99 29 131 14 140 -6 4 -10 -7 -10 -27z"/>
<path d="M268 1188 c-2 -73 -2 -135 0 -138 12 -19 22 43 22 142 0 164 -18 161
-22 -4z"/>
<path d="M480 1320 c-1 -3 -3 -50 -4 -105 -4 -126 -4 -127 -16 -120 -6 4 -13
-7 -16 -24 l-6 -31 -79 0 c-46 0 -79 -4 -79 -10 0 -6 33 -10 80 -10 62 0 82 3
86 15 4 8 14 15 24 15 10 0 21 7 24 16 10 26 7 228 -4 244 -5 8 -10 13 -10 10z"/>
<path d="M736 1288 c-25 -126 -46 -190 -61 -184 -9 3 -15 -7 -19 -30 l-7 -34
-74 0 c-41 0 -77 -4 -80 -10 -4 -6 23 -10 74 -10 47 0 81 4 81 10 0 6 7 10 16
10 9 0 12 5 8 12 -4 7 -3 8 4 4 16 -9 26 16 58 143 17 68 22 107 16 113 -7 7
-12 -1 -16 -24z"/>
<path d="M1377 1313 c-11 -10 -8 -251 2 -258 6 -3 10 50 10 130 1 74 0 135 -2
135 -2 0 -7 -3 -10 -7z"/>
<path d="M1425 1181 c0 -115 2 -135 13 -120 9 13 12 52 10 135 -4 170 -23 158
-23 -15z"/>
<path d="M1650 1185 c0 -88 4 -134 10 -130 6 4 10 58 10 130 0 72 -4 126 -10
130 -6 4 -10 -42 -10 -130z"/>
<path d="M2166 1312 c-3 -5 8 -60 25 -123 32 -120 57 -161 85 -138 17 14 20
254 4 264 -6 4 -10 -38 -10 -119 0 -72 -4 -127 -10 -131 -5 -3 -10 0 -10 9 0
8 -4 16 -8 18 -7 3 -33 93 -52 181 -8 42 -15 53 -24 39z"/>
<path d="M560 1245 c0 -30 3 -35 23 -35 13 0 32 7 43 15 19 15 19 15 -1 9 -16
-4 -16 -3 3 8 l23 14 -26 12 c-48 22 -65 16 -65 -23z"/>
<path d="M942 1268 l-22 -11 22 -12 c22 -10 23 -17 22 -108 -1 -83 0 -95 12
-79 8 12 13 54 13 120 1 108 -1 112 -47 90z"/>
<path d="M1050 1182 c0 -63 5 -104 13 -115 10 -14 11 -1 9 77 l-3 94 28 10 28
10 -28 11 c-16 6 -33 11 -38 11 -5 0 -9 -44 -9 -98z"/>
<path d="M1510 1245 c0 -28 4 -35 19 -35 31 0 50 11 45 25 -3 7 3 15 13 18 15
3 13 6 -10 15 -51 22 -67 16 -67 -23z"/>
<path d="M1740 1235 c0 -42 1 -44 23 -36 38 14 31 81 -9 81 -10 0 -14 -13 -14
-45z"/>
<path d="M2352 1240 c-1 -47 12 -58 39 -34 32 29 19 74 -22 74 -13 0 -17 -9
-17 -40z"/>
<path d="M2540 1268 l-25 -11 25 -6 c24 -7 25 -10 28 -104 4 -135 22 -115 22
24 0 116 -1 118 -50 97z"/>
<path d="M2656 1173 c6 -140 24 -161 24 -30 0 92 1 98 22 106 l22 8 -21 12
c-50 26 -53 19 -47 -96z"/>
<path d="M791 1191 c-14 -48 -12 -54 16 -49 18 3 18 7 8 48 l-12 45 -12 -44z"/>
<path d="M2107 1204 c-3 -16 -9 -37 -12 -46 -6 -14 -2 -18 19 -18 24 0 26 3
20 28 -4 15 -10 36 -14 46 -6 17 -8 15 -13 -10z"/>
<path d="M1590 1183 c0 -28 3 -34 10 -23 13 20 13 47 0 55 -6 4 -10 -9 -10
-32z"/>
<path d="M1240 1116 c0 -35 5 -58 15 -66 26 -22 45 5 45 66 0 53 0 54 -30 54
-30 0 -30 -1 -30 -54z"/>
<path d="M560 1125 c0 -32 3 -35 28 -35 16 0 37 7 48 15 19 14 18 14 -3 15
-13 0 -23 5 -23 10 0 6 5 10 11 10 5 0 7 5 4 10 -3 6 -19 10 -36 10 -27 0 -29
-3 -29 -35z"/>
<path d="M1512 1126 c1 -32 4 -36 28 -36 14 0 35 7 46 15 18 13 18 14 1 15
-11 0 -17 6 -15 18 2 13 -5 18 -29 20 -31 3 -32 2 -31 -32z"/>
<path d="M1740 1102 c0 -26 7 -45 19 -56 23 -21 101 -34 101 -17 0 6 -15 11
-34 11 -32 0 -35 3 -51 50 -20 60 -35 65 -35 12z"/>
<path d="M2350 1115 c0 -37 18 -69 47 -82 32 -15 83 -17 83 -3 0 6 -16 10 -35
10 -32 0 -35 3 -52 50 -19 53 -43 67 -43 25z"/>
<path d="M1610 1071 l0 -31 -79 0 c-44 0 -83 -4 -86 -10 -4 -6 23 -10 73 -10
64 0 82 4 95 18 19 21 22 48 7 57 -6 4 -10 -7 -10 -24z"/>
<path d="M767 1084 c-3 -4 -2 -15 4 -25 9 -17 6 -19 -36 -19 -28 0 -44 -4 -40
-10 10 -16 67 -11 88 7 10 10 26 18 35 18 9 0 18 8 20 18 3 13 -4 17 -31 17
-18 0 -37 -3 -40 -6z"/>
<path d="M2082 1073 c3 -12 12 -17 26 -16 12 2 22 -3 22 -10 0 -8 4 -7 10 3
18 28 11 40 -26 40 -28 0 -35 -3 -32 -17z"/>
<path d="M835 1030 c-4 -6 12 -10 40 -10 28 0 44 4 40 10 -3 6 -21 10 -40 10
-19 0 -37 -4 -40 -10z"/>
<path d="M980 1030 c0 -5 18 -10 40 -10 22 0 40 5 40 10 0 6 -18 10 -40 10
-22 0 -40 -4 -40 -10z"/>
<path d="M1160 1030 c0 -5 21 -10 46 -10 27 0 43 4 39 10 -3 6 -24 10 -46 10
-21 0 -39 -4 -39 -10z"/>
<path d="M1290 1030 c0 -5 20 -10 45 -10 25 0 45 5 45 10 0 6 -20 10 -45 10
-25 0 -45 -4 -45 -10z"/>
<path d="M1670 1030 c0 -5 18 -10 40 -10 22 0 40 5 40 10 0 6 -18 10 -40 10
-22 0 -40 -4 -40 -10z"/>
<path d="M2010 1030 c0 -5 16 -10 35 -10 19 0 35 5 35 10 0 6 -16 10 -35 10
-19 0 -35 -4 -35 -10z"/>
<path d="M2150 1030 c0 -5 18 -10 40 -10 22 0 40 5 40 10 0 6 -18 10 -40 10
-22 0 -40 -4 -40 -10z"/>
<path d="M2285 1030 c3 -5 22 -10 41 -10 19 0 34 5 34 10 0 6 -18 10 -41 10
-24 0 -38 -4 -34 -10z"/>
<path d="M2585 1030 c-4 -6 10 -10 34 -10 23 0 41 5 41 10 0 6 -15 10 -34 10
-19 0 -38 -4 -41 -10z"/>
<path d="M850 957 c-84 -40 -89 -151 -8 -190 40 -19 96 -8 117 23 l16 24 -32
-23 c-37 -28 -83 -24 -120 11 -68 64 25 182 109 137 11 -6 22 -8 24 -6 6 6
-55 37 -70 36 -6 0 -22 -6 -36 -12z"/>
<path d="M1393 963 c-33 -6 -73 -59 -73 -97 0 -38 20 -86 37 -86 6 0 13 -4 15
-10 4 -12 55 -16 88 -6 14 4 32 17 39 29 14 22 14 22 -7 4 -11 -10 -38 -21
-59 -24 -32 -4 -45 0 -68 20 -24 20 -30 33 -30 67 0 70 60 107 129 80 14 -5
26 -6 26 -2 0 7 -61 34 -71 31 -2 -1 -14 -4 -26 -6z"/>
<path d="M1800 960 c0 -5 -5 -10 -12 -10 -26 0 -58 -52 -58 -96 0 -35 5 -47
30 -67 56 -47 125 -41 164 14 l14 21 40 -32 c66 -53 140 -41 169 27 26 63 7
109 -58 142 -49 24 -138 -22 -139 -71 0 -24 -16 -23 -32 1 -9 13 -19 17 -28
11 -7 -5 -23 -3 -37 3 -33 15 -69 -19 -59 -57 6 -26 44 -44 65 -31 18 10 12
25 -9 25 -13 0 -20 7 -20 20 0 17 7 20 40 20 40 0 40 0 40 -39 0 -64 -55 -89
-119 -56 -33 16 -41 33 -41 79 0 68 82 110 138 70 12 -8 22 -10 22 -5 0 15
-54 41 -85 41 -14 0 -25 -4 -25 -10z m312 -30 c48 -37 41 -118 -13 -145 -53
-28 -98 -15 -125 36 -44 85 62 169 138 109z"/>
<path d="M2028 899 c-25 -14 -24 -65 1 -79 11 -5 24 -10 30 -10 16 0 41 30 41
50 0 21 -25 50 -43 50 -7 0 -20 -5 -29 -11z"/>
<path d="M1595 953 c-15 -11 -79 -162 -72 -169 7 -7 36 50 62 119 14 36 23 47
39 47 18 0 28 -15 55 -80 18 -44 36 -78 41 -75 12 8 -5 59 -38 113 -28 46 -62
63 -87 45z"/>
<path d="M1162 865 c0 -73 2 -82 8 -45 4 25 4 65 0 90 -6 37 -8 28 -8 -45z"/>
<path d="M997 873 c-3 -38 -1 -75 4 -83 5 -9 9 15 9 68 0 45 -2 82 -4 82 -2 0
-6 -30 -9 -67z"/>
<path d="M1060 908 c0 -24 4 -28 30 -28 22 0 30 5 30 18 0 25 -12 37 -37 38
-19 0 -23 -5 -23 -28z"/>
<path d="M1210 860 c0 -47 4 -80 10 -80 6 0 10 33 10 80 0 47 -4 80 -10 80 -6
0 -10 -33 -10 -80z"/>
<path d="M1277 933 c-11 -10 -8 -143 3 -143 6 0 10 32 10 75 0 75 -1 81 -13
68z"/>
<path d="M317 919 c-20 -3 -39 -8 -42 -11 -2 -2 97 -2 220 0 224 4 225 4 225
-17 0 -21 -3 -21 -227 -22 -126 0 -222 -3 -215 -6 10 -4 10 -8 1 -19 -10 -12
21 -13 215 -7 l226 6 0 -21 c0 -22 -1 -22 -227 -23 -126 -1 -212 -5 -193 -8
50 -10 403 -13 417 -4 6 5 10 32 10 67 -2 57 -3 60 -32 68 -33 9 -319 7 -378
-3z"/>
<path d="M2275 920 c-12 -5 42 -9 140 -10 88 -1 196 -3 240 -5 l80 -3 -58 13
c-65 14 -371 18 -402 5z"/>
<path d="M948 904 c-12 -13 -20 -14 -37 -5 -24 13 -55 2 -65 -24 -14 -37 29
-74 64 -55 27 15 25 28 -4 23 -26 -5 -39 7 -31 29 4 9 17 13 38 10 24 -2 35 2
45 17 15 25 12 27 -10 5z"/>
<path d="M1398 899 c-45 -26 -4 -104 41 -79 11 5 28 7 38 4 15 -5 15 -4 3 5
-8 6 -28 11 -43 11 -38 0 -34 35 4 36 31 1 49 11 49 27 0 7 -4 6 -10 -3 -8
-12 -13 -13 -30 -2 -24 14 -30 15 -52 1z"/>
<path d="M1616 875 c-10 -26 -7 -35 9 -35 17 0 19 18 6 38 -7 11 -10 10 -15
-3z"/>
<path d="M2250 860 c0 -17 13 -18 255 -24 200 -6 228 -4 212 8 -18 14 -18 14
0 19 10 3 -91 5 -224 6 -161 1 -243 -2 -243 -9z"/>
<path d="M1083 842 c-17 -2 -23 -10 -23 -30 0 -22 5 -27 25 -27 17 0 26 7 30
24 7 29 -2 38 -32 33z"/>
<path d="M1587 790 c-3 -12 -14 -20 -29 -21 -15 -1 -18 -3 -6 -6 9 -2 29 2 45
10 24 13 32 13 53 1 14 -7 32 -13 40 -13 8 0 5 4 -7 9 -13 5 -23 16 -23 25 0
25 -66 20 -73 -5z"/>
<path d="M2255 790 c7 -12 385 -11 445 1 19 3 -74 7 -208 8 -167 1 -241 -2
-237 -9z"/>
<path d="M1610 673 c-26 -24 -33 -37 -34 -71 -1 -47 -3 -48 -51 -28 -33 14
-35 18 -35 63 0 35 -3 44 -10 33 -5 -8 -10 -36 -10 -62 l0 -48 40 0 c35 0 40
-3 40 -22 1 -21 2 -21 11 -5 9 16 12 15 42 -7 50 -39 126 -39 141 -1 4 10 -2
10 -22 -1 -64 -33 -131 4 -132 73 0 65 61 102 130 79 19 -6 22 -5 14 4 -6 6
-29 14 -51 17 -34 4 -45 1 -73 -24z"/>
<path d="M1268 683 c20 -4 22 -10 22 -64 l0 -59 43 1 42 1 -32 10 c-29 10 -33
15 -33 45 0 47 -16 73 -43 72 l-22 -2 23 -4z"/>
<path d="M1421 676 c-14 -16 -13 -144 1 -152 4 -3 8 31 8 75 0 75 1 80 23 84
21 4 21 4 1 6 -12 0 -27 -5 -33 -13z"/>
<path d="M1230 595 c0 -48 4 -74 10 -70 6 3 10 35 10 70 0 35 -4 67 -10 70 -6
4 -10 -22 -10 -70z"/>
<path d="M1638 615 c-10 -22 -9 -29 8 -46 17 -17 25 -18 48 -9 21 8 33 7 45
-2 14 -12 14 -11 2 5 -7 9 -26 17 -41 17 -14 0 -29 3 -33 6 -11 11 5 34 25 34
10 0 16 5 13 10 -13 20 -55 11 -67 -15z"/>
<path d="M1250 510 c0 -5 25 -10 55 -10 30 0 55 5 55 10 0 6 -25 10 -55 10
-30 0 -55 -4 -55 -10z"/>
<path d="M1435 510 c-4 -6 17 -10 55 -10 38 0 59 4 55 10 -3 6 -28 10 -55 10
-27 0 -52 -4 -55 -10z"/>
</g>
</svg>
