<?xml version="1.0" encoding="UTF-8"?>
<svg id="logo" xmlns="http://www.w3.org/2000/svg" version="1.1" viewBox="0 0 900 700">
  <!-- Generator: Adobe Illustrator 29.4.0, SVG Export Plug-In . SVG Version: 2.1.0 Build 152)  -->
  <defs>
    <style>
      .st0 {
        fill: #b46b3a;
      }
    </style>
  </defs>
  <path class="st0" d="M68.87,495.49c10.94,0,15.29-5.03,18.78-18.3,4.1.7,7.46,2.24,9.33,4.05-1.99,6.57-3.23,15.23-3.85,23.05-2.11-.14-4.73-.14-7.96-.14h-4.97l-10.57-.14h-4.97c-8.83,0-29.72,0-35.56.42,0-3.35.37-6.43.87-8.52,6.59-.56,8.46-2.79,8.46-14.81v-49.6c0-11.04-1.62-12.99-8.46-13.83-.5-2.1-.75-5.87-.75-8.52,6.47.14,11.94.42,18.53.42,5.6,0,13.43-.28,18.4-.42,0,3.21,0,6.29-.87,8.52-6.71.84-8.33,2.65-8.33,14.11v49.04c0,5.73.75,9.64,2.11,11.6,1.37,2.1,4.23,3.07,8.33,3.07h1.49ZM170.46,481.24c-1.87,6.57-3.23,15.23-3.85,23.05-5.97-.28-18.78-.28-29.59-.28-8.83,0-29.72,0-35.56.42,0-3.35.37-6.43.87-8.52,6.71-.56,8.33-2.79,8.33-14.81v-49.6c0-11.04-1.49-12.99-8.46-13.83-.5-2.1-.75-5.87-.75-8.52,6.22.28,21.14.42,27.73.42,18.78,0,28.6-.28,34.07-.42.5,6.57,1.37,17.33,2.61,23.47-2.36,1.54-5.1,2.23-9.2,2.23-.99-9.5-4.73-17.19-18.65-17.19h-8.7v34.93h3.73c9.08,0,11.81-2.38,11.94-10.62,2.49-.98,5.47-1.4,8.58-1.4-.25,4.75-.37,10.06-.37,15.93,0,6.43.12,11.88.37,16.35-3.48,0-5.97-.14-8.33-1.12-.62-8.52-3.36-10.9-12.19-10.9h-3.73v19.98c0,5.73.75,9.64,2.11,11.6,1.37,2.1,4.23,3.07,8.33,3.07h1.49c12.93,0,16.54-5.73,20.02-18.3,3.98.7,7.34,2.24,9.2,4.05ZM243.33,480.68c4.97,12.57,6.71,14.67,10.44,15.23.62,2.24.87,5.03.87,8.52-3.73-.28-13.18-.42-17.03-.42s-14.67.14-18.15.42c0-3.63.37-6.43.99-8.52,3.11-.56,4.73-1.26,5.1-2.24.37-.98.5-1.68.5-2.37,0-1.4-.5-3.49-1.49-6.15l-2.98-7.96c-9.95,0-20.64.28-30.59.98l-1.62,4.89c-.87,2.51-1.37,4.61-1.37,6.43,0,.98.25,2.1.75,3.63.37,1.54,2.11,2.37,5.22,2.79.62,2.37.87,5.17.87,8.52-2.86-.42-9.08-.42-13.18-.42s-8.7.28-11.19.42c0-2.93.25-5.87,1.12-8.52,4.35-.84,5.97-3.63,9.95-14.53l25.99-71.96c2.49-.56,4.35-.7,7.34-.7l28.48,71.96ZM194.09,469.51h24.5l-6.96-18.16c-2.61-6.57-4.48-12.02-5.84-17.75-1.62,6.01-3.36,11.6-5.47,17.75l-6.22,18.16ZM273.92,417.95c-10.57,0-13.43,6.29-15.67,17.47-3.36,0-7.09-.14-9.57-1.68,1.49-7.68,2.61-17.47,2.61-24.59,8.83.42,18.9.42,35.44.42,15.29,0,26.61,0,35.19-.42v2.24c0,6.01.5,13.55,1.99,22.35-2.36,1.12-5.35,1.68-8.95,1.68h-.87c-1.12-11.74-4.97-17.47-14.05-17.47h-4.35v63.99c0,11.32,1.74,13.41,10.94,13.97.62,2.1.99,5.31.99,8.52-4.97-.42-12.43-.42-20.52-.42-3.98,0-8.08,0-12.43.14-4.35,0-7.83.14-10.32.28,0-3.21.37-6.15,1.12-8.52,9.2-.56,11.56-2.65,11.56-13.97v-63.99h-3.11ZM330,495.91c6.84-.56,8.21-2.65,8.21-13.97v-50.44c0-11.04-1.37-12.99-8.21-13.83-.62-2.24-.99-5.03-.99-8.52,4.35.28,13.3.42,18.9.42s13.18-.28,18.15-.42c0,3.21,0,5.87-.87,8.52-6.71.84-8.33,2.79-8.33,13.83v19.56h30.71v-19.56c0-11.04-1.62-12.99-8.33-13.83-.62-2.24-.87-5.03-.87-8.52,4.1.28,13.3.42,18.78.42s13.18-.28,18.15-.42c0,3.21,0,5.87-.87,8.52-6.71.84-8.33,2.79-8.33,13.83v50.44c0,11.32,1.87,13.41,8.46,13.97.5,2.1.75,5.31.75,8.52-4.35-.42-10.69-.42-17.53-.42s-14.42,0-19.4.42c0-3.35.25-6.15.87-8.52,6.71-.56,8.33-2.65,8.33-13.97v-22.22c-8.46,0-23,.14-30.71.98v21.24c0,11.32,1.62,13.41,8.33,13.97.62,2.1.87,5.31.87,8.52-4.35-.42-10.69-.42-17.53-.42s-14.42,0-19.52.42c0-3.35.37-6.15.99-8.52ZM492.4,481.24c-1.87,6.57-3.23,15.23-3.85,23.05-5.97-.28-18.78-.28-29.59-.28-8.83,0-29.72,0-35.56.42,0-3.35.37-6.43.87-8.52,6.71-.56,8.33-2.79,8.33-14.81v-49.6c0-11.04-1.49-12.99-8.46-13.83-.5-2.1-.75-5.87-.75-8.52,6.22.28,21.14.42,27.73.42,18.78,0,28.6-.28,34.07-.42.5,6.57,1.37,17.33,2.61,23.47-2.36,1.54-5.1,2.23-9.2,2.23-.99-9.5-4.72-17.19-18.65-17.19h-8.7v34.93h3.73c9.08,0,11.81-2.38,11.94-10.62,2.49-.98,5.47-1.4,8.58-1.4-.25,4.75-.37,10.06-.37,15.93,0,6.43.12,11.88.37,16.35-3.48,0-5.97-.14-8.33-1.12-.62-8.52-3.36-10.9-12.19-10.9h-3.73v19.98c0,5.73.75,9.64,2.11,11.6,1.37,2.1,4.23,3.07,8.33,3.07h1.49c12.93,0,16.54-5.73,20.02-18.3,3.98.7,7.34,2.24,9.2,4.05ZM547.49,484.73c-1.87-4.61-3.61-8.52-5.22-11.46-1.74-2.93-3.98-5.73-6.84-8.66h-6.47v16.49c0,12.71,1.62,14.25,7.09,14.81.5,1.82.75,5.59.75,8.52-4.85-.28-14.17-.42-18.4-.42-5.59,0-12.43,0-17.28.42,0-3.49.25-6.43.87-8.52,6.71-.56,8.33-2.65,8.33-13.97v-50.58c0-10.9-1.49-13.27-8.46-13.83-.5-2.24-.75-6.29-.75-8.38,3.85.14,11.07.42,18.4.42,5.6,0,14.42-.56,23.25-.56,20.27,0,29.22,11.46,29.22,25.01,0,14.67-7.83,24.03-19.27,27.25,6.09,4.75,8.58,9.08,15.17,22.91,4.23,8.52,5.97,10.76,13.06,11.32,0,3.21-.37,6.15-.99,8.52-9.82,0-18.28.28-23.87,1.26-3.61-7.82-5.72-13.69-8.58-20.54ZM528.96,418.65v36.89c1.62.28,3.11.42,4.48.42,10.2,0,19.15-6.15,19.15-19.56,0-11.6-5.47-18.86-16.54-18.86-2.49,0-4.85.42-7.09,1.12ZM692.98,480.68c4.97,12.57,6.71,14.67,10.44,15.23.62,2.24.87,5.03.87,8.52-3.73-.28-13.18-.42-17.04-.42s-14.67.14-18.15.42c0-3.63.37-6.43.99-8.52,3.11-.56,4.73-1.26,5.1-2.24.37-.98.5-1.68.5-2.37,0-1.4-.5-3.49-1.49-6.15l-2.98-7.96c-9.95,0-20.64.28-30.59.98l-1.62,4.89c-.87,2.51-1.37,4.61-1.37,6.43,0,.98.25,2.1.75,3.63.37,1.54,2.11,2.37,5.22,2.79.62,2.37.87,5.17.87,8.52-2.86-.42-9.08-.42-13.18-.42s-8.7.28-11.19.42c0-2.93.25-5.87,1.12-8.52,4.35-.84,5.97-3.63,9.95-14.53l25.99-71.96c2.49-.56,4.35-.7,7.34-.7l28.47,71.96ZM643.73,469.51h24.5l-6.96-18.16c-2.61-6.57-4.48-12.02-5.84-17.75-1.62,6.01-3.36,11.6-5.47,17.75l-6.22,18.16ZM758.01,484.73c-1.87-4.61-3.61-8.52-5.22-11.46-1.74-2.93-3.98-5.73-6.84-8.66h-6.47v16.49c0,12.71,1.62,14.25,7.09,14.81.5,1.82.75,5.59.75,8.52-4.85-.28-14.17-.42-18.4-.42-5.59,0-12.43,0-17.28.42,0-3.49.25-6.43.87-8.52,6.71-.56,8.33-2.65,8.33-13.97v-50.58c0-10.9-1.49-13.27-8.46-13.83-.5-2.24-.75-6.29-.75-8.38,3.85.14,11.07.42,18.4.42,5.6,0,14.42-.56,23.25-.56,20.27,0,29.22,11.46,29.22,25.01,0,14.67-7.83,24.03-19.27,27.25,6.09,4.75,8.58,9.08,15.17,22.91,4.23,8.52,5.97,10.76,13.06,11.32,0,3.21-.37,6.15-.99,8.52-9.82,0-18.28.28-23.87,1.26-3.61-7.82-5.72-13.69-8.58-20.54ZM739.48,418.65v36.89c1.62.28,3.11.42,4.48.42,10.2,0,19.15-6.15,19.15-19.56,0-11.6-5.47-18.86-16.54-18.86-2.49,0-4.85.42-7.09,1.12ZM820.93,417.95c-10.57,0-13.43,6.29-15.67,17.47-3.36,0-7.09-.14-9.57-1.68,1.49-7.68,2.61-17.47,2.61-24.59,8.83.42,18.9.42,35.44.42,15.29,0,26.61,0,35.19-.42v2.24c0,6.01.5,13.55,1.99,22.35-2.36,1.12-5.35,1.68-8.95,1.68h-.87c-1.12-11.74-4.97-17.47-14.05-17.47h-4.35v63.99c0,11.32,1.74,13.41,10.94,13.97.62,2.1,1,5.31,1,8.52-4.97-.42-12.43-.42-20.52-.42-3.98,0-8.08,0-12.43.14-4.35,0-7.83.14-10.32.28,0-3.21.37-6.15,1.12-8.52,9.2-.56,11.56-2.65,11.56-13.97v-63.99h-3.11ZM183.18,550.74v12.13h-102.52l-50.09-2.15v-7.83l50.09-2.15h102.52ZM80.91,574.81l-50.09,2.15v7.83l50.09,2.15h102.52v-12.13h-102.52ZM819.34,586.94l50.09-2.15v-7.83l-50.09-2.15h-102.52v12.13h102.52ZM819.09,562.87l50.09-2.15v-7.83l-50.09-2.15h-102.52v12.13h102.52ZM221.88,567.25c-.28,17.57,12.23,29.78,28.82,29.6,11.86,0,20.48-5.54,24.93-16.01l-12.33-6.15c-2.87,5.89-6.77,8.92-12.6,8.92-8.06,0-13.07-5.89-13.07-16.27s5-16.45,13.07-16.45c5.84,0,9.73,3.03,12.6,8.92l12.33-6.15c-4.45-10.47-13.07-16.01-24.93-16.01-16.59-.26-29.1,12.12-28.82,29.6ZM294.35,595.82h15.48v-23.11h18.63v23.11h15.48v-57.13h-15.48v21.04h-18.63v-21.04h-15.48v57.13ZM365.43,595.82h15.48v-57.13h-15.48v57.13ZM403.43,567.25c-.28,17.57,12.23,29.78,28.82,29.6,11.86,0,20.48-5.54,24.93-16.01l-12.33-6.15c-2.87,5.89-6.77,8.92-12.6,8.92-8.06,0-13.07-5.89-13.07-16.27s5-16.45,13.07-16.45c5.84,0,9.73,3.03,12.6,8.92l12.33-6.15c-4.45-10.47-13.07-16.01-24.93-16.01-16.59-.26-29.1,12.12-28.82,29.6ZM512.42,595.82h16.31l-24.65-57.82h-5.93l-24.75,57.82h16.31l1.95-5.02h18.81l1.95,5.02ZM506.02,579.37h-9.82l4.91-14.2,4.91,14.2ZM544.67,567.17c0,17.66,12.23,29.69,29.57,29.69,11.58,0,21.04-5.54,26.14-14.28v-19.39h-26.6v12.47h11.21v4.15c-2.41,2.68-5.93,4.07-10.47,4.07-8.99,0-14.09-5.97-14.09-16.62s4.82-16.36,13.25-16.36c5.65,0,9.45,2.42,12.42,7.53l11.58-6.92c-4.73-9-12.79-13.85-23.82-13.85-17.15,0-29.2,11.95-29.2,29.52ZM620.29,567.17c-.18,17.66,12.23,29.95,28.82,29.69,16.59.26,29.29-12.03,29.01-29.69,0-17.57-12.05-29.52-29.01-29.52s-28.82,11.95-28.82,29.52ZM662.46,567.25c0,10.47-5.19,16.36-13.25,16.36s-13.16-5.8-13.16-16.45,5-16.27,13.16-16.27,13.25,5.97,13.25,16.36ZM367.33,681.56h34.22v-11.84h-20.11v-40.25h-14.11v52.09ZM429.85,681.56h34.22v-11.84h-20.11v-40.25h-14.11v52.09ZM483.66,655.51c-.25,16.02,11.15,27.15,26.28,26.99,10.81,0,18.67-5.05,22.73-14.6l-11.24-5.6c-2.62,5.37-6.17,8.13-11.49,8.13-7.35,0-11.91-5.37-11.91-14.84s4.56-15,11.91-15c5.32,0,8.87,2.76,11.49,8.13l11.24-5.6c-4.06-9.55-11.91-14.6-22.73-14.6-15.12-.24-26.53,11.05-26.28,26.99ZM180.92,346.42h-17V24.87h92.15l-18,17h-57.15v304.54ZM719.08,346.42h17s0-321.54,0-321.54h-92.15s18,17,18,17h57.15v304.54ZM605.97,75.21v40.37h0c-14.09,7.16-22.96,21.63-22.96,37.43v28.31l-5.3-5.8c-4.27-4.67-9.13-8.67-14.41-11.96,25.65-62.76,12.28-110.33,12.28-110.33,0,0-9.3,70.5-24.78,104.2-7.56-2.8-15.63-4.28-23.86-4.28h-153.87c-8.23,0-16.3,1.49-23.86,4.28-15.48-33.7-24.78-104.2-24.78-104.2,0,0-13.37,47.57,12.28,110.33-5.27,3.28-10.13,7.28-14.41,11.96l-5.3,5.8v-28.31c0-15.8-8.87-30.27-22.96-37.43h0v-40.37c0-31.88,25.84-57.72,57.72-57.72h196.5c31.88,0,57.72,25.84,57.72,57.72ZM405.15,93.54c0-6.16-4.99-11.15-11.15-11.15s-11.15,4.99-11.15,11.15,4.99,11.15,11.15,11.15,11.15-4.99,11.15-11.15ZM461.15,93.54c0-6.16-4.99-11.15-11.15-11.15s-11.15,4.99-11.15,11.15,4.99,11.15,11.15,11.15,11.15-4.99,11.15-11.15ZM517.15,93.54c0-6.16-4.99-11.15-11.15-11.15s-11.15,4.99-11.15,11.15,4.99,11.15,11.15,11.15,11.15-4.99,11.15-11.15ZM543.54,168.54h-187.08c-17.79,0-32.22,14.42-32.22,32.22v11.09c0,8.93,7.24,16.17,16.17,16.17h219.16c8.93,0,16.17-7.24,16.17-16.17v-11.09c0-17.79-14.42-32.22-32.22-32.22ZM450,239.23h-117.44c-7.1,0-12.85,5.75-12.85,12.85v22.17c0,7.31,5.93,13.24,13.24,13.24h234.1c7.31,0,13.24-5.93,13.24-13.24v-22.17c0-7.1-5.75-12.85-12.85-12.85h-117.44ZM688.48,160.25c0,18.59-10.77,34.67-26.41,42.33l-6.79,114.4c-.85,14.35-12.74,25.56-27.12,25.56h-2.18v5.67c0,9.91-8.03,17.93-17.93,17.93h0c-9.91,0-17.93-8.03-17.93-17.93v-5.67h-280.21v5.67c0,9.91-8.03,17.93-17.93,17.93h0c-9.91,0-17.93-8.03-17.93-17.93v-5.67h-2.18c-14.38,0-26.27-11.2-27.12-25.56l-6.79-114.4c-15.64-7.67-26.41-23.74-26.41-42.33,0-26.03,21.1-47.13,47.13-47.13s47.13,21.1,47.13,47.13c0,.4-.02.8-.03,1.2l2.33,117.5c0,9.98,8.09,18.07,18.07,18.07h247.73c9.98,0,18.07-8.09,18.07-18.07l2.33-117.5c-.01-.4-.03-.8-.03-1.2,0-26.03,21.1-47.13,47.13-47.13s47.13,21.1,47.13,47.13ZM270.61,160.25c0-6.61-5.36-11.96-11.96-11.96s-11.96,5.36-11.96,11.96,5.36,11.96,11.96,11.96,11.96-5.36,11.96-11.96ZM653.31,160.25c0-6.61-5.36-11.96-11.96-11.96s-11.96,5.36-11.96,11.96,5.36,11.96,11.96,11.96,11.96-5.36,11.96-11.96Z"/>
</svg>